<svg fill="#ffffff" version="1.1" id="Capa_1" xmlns="http://www.w3.org/2000/svg" xmlns:xlink="http://www.w3.org/1999/xlink" viewBox="0 0 375.75 375.749" xml:space="preserve" stroke="#ffffff"><g id="SVGRepo_bgCarrier" stroke-width="0"></g><g id="SVGRepo_tracerCarrier" stroke-linecap="round" stroke-linejoin="round"></g><g id="SVGRepo_iconCarrier"> <g> <g> <path d="M64.377,364.923h56.684c-2.832-3.276-5.343-6.82-7.508-10.602c-1.918-3.361-3.535-6.911-4.862-10.601H64.377 c-19.86,0-36.002-16.148-36.002-36V57.216c-0.006-19.854,16.142-36.008,36.002-36.008h120.471v48.628 c0,21.906,17.817,39.732,39.731,39.732h48.629v133.145h10.601h10.607V98.961c0-0.691-0.073-1.376-0.207-2.046 c0-0.006,0-0.018,0-0.024c-0.171-0.893-0.512-1.739-0.913-2.564c-0.104-0.21-0.22-0.417-0.329-0.621 c-0.463-0.797-0.986-1.565-1.656-2.241L202.958,3.111c-0.682-0.679-1.468-1.215-2.283-1.684c-0.177-0.098-0.359-0.198-0.542-0.292 c-0.683-0.332-1.389-0.594-2.107-0.779c-0.499-0.131-1.011-0.167-1.528-0.225c-0.249-0.024-0.499-0.085-0.755-0.092 c-0.091,0-0.188-0.039-0.28-0.039H64.377C32.833,0.006,7.167,25.672,7.167,57.216v250.504 C7.167,339.257,32.833,364.923,64.377,364.923z M224.58,88.359c-10.224,0-18.529-8.309-18.529-18.523v-33.64l52.16,52.163H224.58z "></path> <path d="M233.318,141.917H68.262c-5.849,0-10.601,4.744-10.601,10.598c0,5.858,4.752,10.602,10.601,10.602h165.056 c5.852,0,10.607-4.744,10.607-10.602C243.925,146.66,239.169,141.917,233.318,141.917z"></path> <path d="M233.318,212.645H68.262c-5.849,0-10.601,4.744-10.601,10.596c0,5.857,4.752,10.602,10.601,10.602h165.056 c5.852,0,10.607-4.744,10.607-10.602C243.925,217.389,239.169,212.645,233.318,212.645z"></path> <path d="M307.898,318.225c-4.519,1.395-7.1,4.372-7.1,8.215c-0.092,2.01,0.584,3.848,1.888,5.212 c1.461,1.522,3.616,2.362,6.095,2.362c4.78,0,7.983-2.825,7.983-7.021C316.764,322.621,314.194,320.064,307.898,318.225z"></path> <path d="M309.566,311.953c1.961-0.719,5.895-2.697,5.895-7.118c0-3.057-1.735-6.339-6.612-6.339c-4.701,0-6.814,3.117-6.814,6.205 C302.041,308.221,304.439,310.534,309.566,311.953z"></path> <path d="M313.981,255.184h-19.57h-10.607h-10.602H171.775c-30.157,0-54.599,24.442-54.599,54.596v11.375 c0,8.062,1.791,15.673,4.92,22.56c1.72,3.794,3.873,7.338,6.372,10.602c3.081,4.019,6.698,7.575,10.756,10.601 c9.098,6.777,20.335,10.833,32.55,10.833h142.206c30.153,0,54.602-24.441,54.602-54.595v-11.375 C368.583,279.626,344.134,255.184,313.981,255.184z M272.842,293.064h0.366h5.717v35.323v11.138h-7.696V339.5v-20.1v-18.286 l-7.575,4.092l-1.632-6.473L272.842,293.064z M237.55,312.002c0.956,1.443,1.777,2.776,2.667,4.256 c0.651-1.126,1.303-2.18,1.954-3.232l0.658-1.061l4.956-7.514h8.817l-11.978,16.995l11.466,16.866l0.828,1.213h-2.898h-6.235 l-5.151-7.898c-0.998-1.485-1.888-2.923-2.838-4.53c-0.614,1.048-1.242,2.064-1.899,3.112l-5.968,9.322h-8.957l12.453-17.885 l-11.898-17.184h9L237.55,312.002z M215.647,291.354l8.257-0.816l-0.365,1.304c-1.516,5.541-4.481,13.085-6.479,16.489 l-0.231,0.402l-5.833,0.73l0.541-1.449c1.48-3.994,3.246-10.985,4.001-15.941L215.647,291.354z M201.386,308.025 c1.321-3.702,3.228-10.856,4.007-15.953l0.109-0.719l8.257-0.816l-0.365,1.304c-1.516,5.541-4.481,13.085-6.479,16.489 l-0.231,0.402l-5.803,0.73L201.386,308.025z M173.961,299.58c3.848-3.77,8.972-6.145,14.821-6.851 c1.504-0.231,3.026-0.353,4.503-0.353h0.935v6.868l-0.989-0.055c-1.212-0.055-2.795,0.019-4.323,0.262 c-7.082,1.181-12.182,5.639-14.103,12.166c2.536-2.131,5.849-3.318,9.426-3.318c8.471,0,14.392,6.308,14.392,15.339 c0,8.067-5.522,16.641-15.755,16.641c-10.15,0-16.718-7.824-16.718-19.941C166.143,311.996,168.919,304.628,173.961,299.58z M146.441,293.064h6.083v46.461h-7.7v-38.411l-7.569,4.092l-1.641-6.473L146.441,293.064z M308.641,340.279 c-10.425,0-15.893-6.539-15.893-13.006c0-5.255,2.722-9.39,7.867-12.062c-3.934-2.351-6.15-5.955-6.15-10.096 c0-7.417,6.198-12.8,14.724-12.8c9.548,0,13.901,6.175,13.901,11.911c0,2.588-0.871,7.203-6.351,10.461 c5.163,2.539,7.988,6.643,7.988,11.703C324.741,334.44,317.969,340.279,308.641,340.279z M333.083,308.732l-5.797,0.73 l0.499-1.432c1.328-3.708,3.228-10.856,4.007-15.947l0.116-0.719l8.25-0.828l-0.365,1.315c-1.521,5.554-4.487,13.099-6.479,16.483 L333.083,308.732z M349.95,291.841c-1.522,5.541-4.481,13.085-6.479,16.489l-0.23,0.402l-5.834,0.73l0.536-1.449 c1.485-3.994,3.251-10.985,4.007-15.941l0.109-0.719l8.251-0.816L349.95,291.841z"></path> <path d="M182.86,333.746c4.652,0,7.776-3.934,7.776-9.773c0-5.724-3.164-9.285-8.257-9.285c-3.203,0-6.266,1.954-7.807,4.98 c-0.399,0.664-0.584,1.4-0.584,2.241C174.125,329.319,177.441,333.746,182.86,333.746z"></path> </g> </g> </g></svg>