<svg fill="#831843" version="1.1" id="Capa_1" xmlns="http://www.w3.org/2000/svg" xmlns:xlink="http://www.w3.org/1999/xlink" viewBox="0 0 275.33 275.33" xml:space="preserve" stroke="#831843"><g id="SVGRepo_bgCarrier" stroke-width="0"></g><g id="SVGRepo_tracerCarrier" stroke-linecap="round" stroke-linejoin="round"></g><g id="SVGRepo_iconCarrier"> <g> <g> <path d="M109.383,101.141v108.406c0,5.964,3.562,13.774,8.266,17.439l28,21.837c4.701,3.665,13.018,4.868,18.57,2.695 l106.339-43.859c5.553-2.178,6.381-7.088,1.84-10.953l-26.314-22.428c-4.545-3.876-8.221-11.844-8.221-17.813V30.898 c0-5.961-4.641-9.429-10.357-7.744L90.351,63.628l12.691,17.972C106.546,86.428,109.383,95.174,109.383,101.141z"></path> <path d="M64.844,70.766c0,0,0.166,0.114,0.409,0.272l0.912-0.272H64.844z"></path> <path d="M46.418,175.144c5.816,0.269,11.783-0.518,17.632-2.479l21.966-7.352c0,0-0.588-35.189,0-58.14 c0.546-21.168-17.896-34.235-20.77-36.136l-32.065,9.46C7.732,89.02-5.995,116.563,2.528,142.016 C9.098,161.611,26.941,174.252,46.418,175.144z M27.287,118.583c5.669-1.856,12.29,2.826,14.784,10.449 c2.495,7.625-0.079,15.314-5.746,17.17c-5.669,1.856-12.29-2.826-14.784-10.452C19.046,128.125,21.615,120.437,27.287,118.583z"></path> </g> </g> </g></svg>